<mxfile host="app.diagrams.net" agent="Mozilla/5.0 (Windows NT 10.0; Win64; x64) AppleWebKit/537.36 (KHTML, like Gecko) Chrome/133.0.0.0 Safari/537.36" version="26.0.16">
  <diagram name="Copia de PÃ¡gina-1" id="H_VdI4_c6HS0csKvg5TS">
    <mxGraphModel grid="1" page="1" gridSize="10" guides="1" tooltips="1" connect="1" arrows="1" fold="1" pageScale="1" pageWidth="3300" pageHeight="4681" math="0" shadow="0">
      <root>
        <mxCell id="IQPRCwWOdHiarxcuKvKh-0" />
        <mxCell id="IQPRCwWOdHiarxcuKvKh-1" parent="IQPRCwWOdHiarxcuKvKh-0" />
        <mxCell id="IQPRCwWOdHiarxcuKvKh-2" value="" style="rounded=0;orthogonalLoop=1;jettySize=auto;html=1;endArrow=none;startFill=0;strokeWidth=2;" edge="1" parent="IQPRCwWOdHiarxcuKvKh-1" source="IQPRCwWOdHiarxcuKvKh-7" target="IQPRCwWOdHiarxcuKvKh-11">
          <mxGeometry relative="1" as="geometry" />
        </mxCell>
        <mxCell id="IQPRCwWOdHiarxcuKvKh-3" style="rounded=0;orthogonalLoop=1;jettySize=auto;html=1;exitX=0.75;exitY=0;exitDx=0;exitDy=0;entryX=0.5;entryY=1;entryDx=0;entryDy=0;endArrow=none;startFill=0;strokeWidth=2;" edge="1" parent="IQPRCwWOdHiarxcuKvKh-1" source="IQPRCwWOdHiarxcuKvKh-7" target="IQPRCwWOdHiarxcuKvKh-14">
          <mxGeometry relative="1" as="geometry" />
        </mxCell>
        <mxCell id="IQPRCwWOdHiarxcuKvKh-4" style="rounded=0;orthogonalLoop=1;jettySize=auto;html=1;exitX=0.25;exitY=0;exitDx=0;exitDy=0;entryX=0.5;entryY=1;entryDx=0;entryDy=0;endArrow=none;startFill=0;strokeWidth=2;" edge="1" parent="IQPRCwWOdHiarxcuKvKh-1" source="IQPRCwWOdHiarxcuKvKh-7" target="IQPRCwWOdHiarxcuKvKh-10">
          <mxGeometry relative="1" as="geometry" />
        </mxCell>
        <mxCell id="IQPRCwWOdHiarxcuKvKh-5" style="rounded=0;orthogonalLoop=1;jettySize=auto;html=1;exitX=0;exitY=1;exitDx=0;exitDy=0;entryX=1;entryY=0;entryDx=0;entryDy=0;endArrow=none;startFill=0;strokeWidth=2;" edge="1" parent="IQPRCwWOdHiarxcuKvKh-1" source="IQPRCwWOdHiarxcuKvKh-7" target="IQPRCwWOdHiarxcuKvKh-15">
          <mxGeometry relative="1" as="geometry" />
        </mxCell>
        <mxCell id="IQPRCwWOdHiarxcuKvKh-6" style="rounded=0;orthogonalLoop=1;jettySize=auto;html=1;exitX=0.25;exitY=1;exitDx=0;exitDy=0;endArrow=none;startFill=0;strokeWidth=2;entryX=0.5;entryY=0;entryDx=0;entryDy=0;" edge="1" parent="IQPRCwWOdHiarxcuKvKh-1" source="IQPRCwWOdHiarxcuKvKh-7" target="IQPRCwWOdHiarxcuKvKh-28">
          <mxGeometry relative="1" as="geometry" />
        </mxCell>
        <mxCell id="IQPRCwWOdHiarxcuKvKh-7" value="&lt;font style=&quot;font-size: 20px;&quot;&gt;Personaje&lt;/font&gt;" style="whiteSpace=wrap;html=1;align=center;strokeWidth=2;fillColor=#fff2cc;strokeColor=#d6b656;" vertex="1" parent="IQPRCwWOdHiarxcuKvKh-1">
          <mxGeometry x="610" y="310" width="120" height="40" as="geometry" />
        </mxCell>
        <mxCell id="IQPRCwWOdHiarxcuKvKh-8" value="" style="rounded=0;orthogonalLoop=1;jettySize=auto;html=1;endArrow=none;startFill=0;strokeWidth=2;entryX=0;entryY=0;entryDx=0;entryDy=0;" edge="1" parent="IQPRCwWOdHiarxcuKvKh-1" source="IQPRCwWOdHiarxcuKvKh-9" target="IQPRCwWOdHiarxcuKvKh-7">
          <mxGeometry relative="1" as="geometry" />
        </mxCell>
        <mxCell id="IQPRCwWOdHiarxcuKvKh-9" value="&lt;span style=&quot;font-size: 20px;&quot;&gt;Inteligencia&lt;/span&gt;" style="ellipse;whiteSpace=wrap;html=1;align=center;strokeWidth=2;fillColor=#dae8fc;strokeColor=#6c8ebf;" vertex="1" parent="IQPRCwWOdHiarxcuKvKh-1">
          <mxGeometry x="450" y="220" width="120" height="50" as="geometry" />
        </mxCell>
        <mxCell id="IQPRCwWOdHiarxcuKvKh-10" value="&lt;span style=&quot;font-size: 20px;&quot;&gt;Habilidad&lt;/span&gt;" style="ellipse;whiteSpace=wrap;html=1;align=center;strokeWidth=2;fillColor=#dae8fc;strokeColor=#6c8ebf;" vertex="1" parent="IQPRCwWOdHiarxcuKvKh-1">
          <mxGeometry x="570" y="240" width="120" height="50" as="geometry" />
        </mxCell>
        <mxCell id="IQPRCwWOdHiarxcuKvKh-11" value="&lt;span style=&quot;font-size: 20px;&quot;&gt;Rapidez&lt;/span&gt;" style="ellipse;whiteSpace=wrap;html=1;align=center;strokeWidth=2;fillColor=#dae8fc;strokeColor=#6c8ebf;" vertex="1" parent="IQPRCwWOdHiarxcuKvKh-1">
          <mxGeometry x="670" y="200" width="120" height="50" as="geometry" />
        </mxCell>
        <mxCell id="IQPRCwWOdHiarxcuKvKh-12" style="rounded=0;orthogonalLoop=1;jettySize=auto;html=1;exitX=1;exitY=0.5;exitDx=0;exitDy=0;endArrow=none;startFill=0;strokeWidth=2;" edge="1" parent="IQPRCwWOdHiarxcuKvKh-1" source="IQPRCwWOdHiarxcuKvKh-13">
          <mxGeometry relative="1" as="geometry">
            <mxPoint x="610" y="330" as="targetPoint" />
          </mxGeometry>
        </mxCell>
        <mxCell id="IQPRCwWOdHiarxcuKvKh-13" value="&lt;span style=&quot;font-size: 20px;&quot;&gt;Vida&lt;/span&gt;" style="ellipse;whiteSpace=wrap;html=1;align=center;strokeWidth=2;fillColor=#dae8fc;strokeColor=#6c8ebf;" vertex="1" parent="IQPRCwWOdHiarxcuKvKh-1">
          <mxGeometry x="410" y="280" width="120" height="50" as="geometry" />
        </mxCell>
        <mxCell id="IQPRCwWOdHiarxcuKvKh-14" value="&lt;span style=&quot;font-size: 20px;&quot;&gt;NivelFuerza&lt;/span&gt;" style="ellipse;whiteSpace=wrap;html=1;align=center;strokeWidth=2;fillColor=#dae8fc;strokeColor=#6c8ebf;" vertex="1" parent="IQPRCwWOdHiarxcuKvKh-1">
          <mxGeometry x="760" y="250" width="120" height="50" as="geometry" />
        </mxCell>
        <mxCell id="IQPRCwWOdHiarxcuKvKh-15" value="&lt;font style=&quot;font-size: 17px;&quot;&gt;NombrePersonaje&lt;/font&gt;" style="ellipse;whiteSpace=wrap;html=1;align=center;fontStyle=4;strokeWidth=2;fillColor=#dae8fc;strokeColor=#6c8ebf;" vertex="1" parent="IQPRCwWOdHiarxcuKvKh-1">
          <mxGeometry x="385" y="340" width="145" height="60" as="geometry" />
        </mxCell>
        <mxCell id="IQPRCwWOdHiarxcuKvKh-16" value="" style="rounded=0;orthogonalLoop=1;jettySize=auto;html=1;endArrow=none;startFill=0;strokeWidth=2;" edge="1" parent="IQPRCwWOdHiarxcuKvKh-1" source="IQPRCwWOdHiarxcuKvKh-19" target="IQPRCwWOdHiarxcuKvKh-22">
          <mxGeometry relative="1" as="geometry" />
        </mxCell>
        <mxCell id="IQPRCwWOdHiarxcuKvKh-17" style="rounded=0;orthogonalLoop=1;jettySize=auto;html=1;exitX=0.75;exitY=0;exitDx=0;exitDy=0;entryX=0;entryY=0.5;entryDx=0;entryDy=0;endArrow=none;startFill=0;strokeWidth=2;" edge="1" parent="IQPRCwWOdHiarxcuKvKh-1" source="IQPRCwWOdHiarxcuKvKh-19">
          <mxGeometry relative="1" as="geometry">
            <mxPoint x="1400.0000000000002" y="255" as="targetPoint" />
          </mxGeometry>
        </mxCell>
        <mxCell id="IQPRCwWOdHiarxcuKvKh-18" style="rounded=0;orthogonalLoop=1;jettySize=auto;html=1;exitX=0.75;exitY=1;exitDx=0;exitDy=0;entryX=0;entryY=0.5;entryDx=0;entryDy=0;endArrow=none;startFill=0;strokeWidth=2;" edge="1" parent="IQPRCwWOdHiarxcuKvKh-1" source="IQPRCwWOdHiarxcuKvKh-19">
          <mxGeometry relative="1" as="geometry">
            <mxPoint x="1400.0000000000002" y="405" as="targetPoint" />
          </mxGeometry>
        </mxCell>
        <mxCell id="hNANthhiV2G6ag8AvIlq-15" style="edgeStyle=orthogonalEdgeStyle;rounded=0;orthogonalLoop=1;jettySize=auto;html=1;exitX=0.5;exitY=1;exitDx=0;exitDy=0;entryX=0.5;entryY=0;entryDx=0;entryDy=0;endArrow=none;startFill=1;strokeWidth=2;startArrow=block;" edge="1" parent="IQPRCwWOdHiarxcuKvKh-1" source="IQPRCwWOdHiarxcuKvKh-19" target="hNANthhiV2G6ag8AvIlq-14">
          <mxGeometry relative="1" as="geometry" />
        </mxCell>
        <mxCell id="IQPRCwWOdHiarxcuKvKh-19" value="&lt;font style=&quot;font-size: 20px;&quot;&gt;Escenario&lt;/font&gt;" style="whiteSpace=wrap;html=1;align=center;strokeWidth=2;fillColor=#fff2cc;strokeColor=#d6b656;" vertex="1" parent="IQPRCwWOdHiarxcuKvKh-1">
          <mxGeometry x="1187.5" y="310" width="120" height="40" as="geometry" />
        </mxCell>
        <mxCell id="IQPRCwWOdHiarxcuKvKh-22" value="&lt;font style=&quot;font-size: 20px;&quot;&gt;IdEscenario&lt;/font&gt;" style="ellipse;whiteSpace=wrap;html=1;align=center;fontStyle=4;strokeWidth=2;fillColor=#dae8fc;strokeColor=#6c8ebf;" vertex="1" parent="IQPRCwWOdHiarxcuKvKh-1">
          <mxGeometry x="1387.5" y="300" width="145" height="60" as="geometry" />
        </mxCell>
        <mxCell id="hNANthhiV2G6ag8AvIlq-10" style="edgeStyle=orthogonalEdgeStyle;rounded=0;orthogonalLoop=1;jettySize=auto;html=1;exitX=1;exitY=0.5;exitDx=0;exitDy=0;entryX=0.5;entryY=1;entryDx=0;entryDy=0;strokeWidth=2;endArrow=none;startFill=0;shape=link;" edge="1" parent="IQPRCwWOdHiarxcuKvKh-1">
          <mxGeometry relative="1" as="geometry">
            <mxPoint x="730" y="645" as="sourcePoint" />
            <mxPoint x="995" y="560" as="targetPoint" />
          </mxGeometry>
        </mxCell>
        <mxCell id="hNANthhiV2G6ag8AvIlq-23" style="rounded=0;orthogonalLoop=1;jettySize=auto;html=1;exitX=0.75;exitY=0;exitDx=0;exitDy=0;endArrow=none;startFill=0;strokeWidth=2;" edge="1" parent="IQPRCwWOdHiarxcuKvKh-1" target="hNANthhiV2G6ag8AvIlq-19">
          <mxGeometry relative="1" as="geometry">
            <mxPoint x="700" y="625" as="sourcePoint" />
          </mxGeometry>
        </mxCell>
        <mxCell id="jYgVYlLxXu33lL3B89db-6" value="" style="edgeStyle=orthogonalEdgeStyle;rounded=0;orthogonalLoop=1;jettySize=auto;html=1;strokeWidth=2;endArrow=none;startFill=0;" edge="1" parent="IQPRCwWOdHiarxcuKvKh-1" source="IQPRCwWOdHiarxcuKvKh-25">
          <mxGeometry relative="1" as="geometry">
            <mxPoint x="610" y="645" as="targetPoint" />
          </mxGeometry>
        </mxCell>
        <mxCell id="IQPRCwWOdHiarxcuKvKh-25" value="&lt;font style=&quot;font-size: 17px;&quot;&gt;NombreObjeto&lt;/font&gt;" style="ellipse;whiteSpace=wrap;html=1;align=center;strokeWidth=2;fillColor=#dae8fc;strokeColor=#6c8ebf;" vertex="1" parent="IQPRCwWOdHiarxcuKvKh-1">
          <mxGeometry x="440" y="620" width="120" height="50" as="geometry" />
        </mxCell>
        <mxCell id="jYgVYlLxXu33lL3B89db-7" style="rounded=0;orthogonalLoop=1;jettySize=auto;html=1;exitX=0.5;exitY=0;exitDx=0;exitDy=0;entryX=0.25;entryY=1;entryDx=0;entryDy=0;strokeWidth=2;endArrow=none;startFill=0;" edge="1" parent="IQPRCwWOdHiarxcuKvKh-1" source="IQPRCwWOdHiarxcuKvKh-27">
          <mxGeometry relative="1" as="geometry">
            <mxPoint x="640" y="665" as="targetPoint" />
          </mxGeometry>
        </mxCell>
        <mxCell id="IQPRCwWOdHiarxcuKvKh-27" value="&lt;span style=&quot;font-size: 20px;&quot;&gt;Tipo&lt;/span&gt;" style="ellipse;whiteSpace=wrap;html=1;align=center;strokeWidth=2;fillColor=#dae8fc;strokeColor=#6c8ebf;" vertex="1" parent="IQPRCwWOdHiarxcuKvKh-1">
          <mxGeometry x="490" y="705" width="120" height="50" as="geometry" />
        </mxCell>
        <mxCell id="IQPRCwWOdHiarxcuKvKh-28" value="&lt;span style=&quot;font-size: 20px;&quot;&gt;Rol&lt;/span&gt;" style="ellipse;whiteSpace=wrap;html=1;align=center;strokeWidth=2;fillColor=#dae8fc;strokeColor=#6c8ebf;" vertex="1" parent="IQPRCwWOdHiarxcuKvKh-1">
          <mxGeometry x="480" y="400" width="120" height="50" as="geometry" />
        </mxCell>
        <mxCell id="jYgVYlLxXu33lL3B89db-5" style="rounded=0;orthogonalLoop=1;jettySize=auto;html=1;exitX=0.5;exitY=1;exitDx=0;exitDy=0;entryX=0.25;entryY=0;entryDx=0;entryDy=0;endArrow=none;startFill=0;strokeWidth=2;" edge="1" parent="IQPRCwWOdHiarxcuKvKh-1">
          <mxGeometry relative="1" as="geometry">
            <mxPoint x="540" y="600" as="sourcePoint" />
            <mxPoint x="640" y="625" as="targetPoint" />
          </mxGeometry>
        </mxCell>
        <mxCell id="IQPRCwWOdHiarxcuKvKh-31" style="rounded=0;orthogonalLoop=1;jettySize=auto;html=1;exitX=0;exitY=0.5;exitDx=0;exitDy=0;entryX=1;entryY=0.5;entryDx=0;entryDy=0;strokeWidth=2;endArrow=none;startFill=0;" edge="1" parent="IQPRCwWOdHiarxcuKvKh-1" source="IQPRCwWOdHiarxcuKvKh-36" target="IQPRCwWOdHiarxcuKvKh-38">
          <mxGeometry relative="1" as="geometry" />
        </mxCell>
        <mxCell id="IQPRCwWOdHiarxcuKvKh-32" style="rounded=0;orthogonalLoop=1;jettySize=auto;html=1;exitX=0.75;exitY=1;exitDx=0;exitDy=0;entryX=0;entryY=0;entryDx=0;entryDy=0;strokeWidth=2;endArrow=none;startFill=0;" edge="1" parent="IQPRCwWOdHiarxcuKvKh-1" source="IQPRCwWOdHiarxcuKvKh-36" target="IQPRCwWOdHiarxcuKvKh-39">
          <mxGeometry relative="1" as="geometry" />
        </mxCell>
        <mxCell id="IQPRCwWOdHiarxcuKvKh-33" style="rounded=0;orthogonalLoop=1;jettySize=auto;html=1;exitX=0.25;exitY=1;exitDx=0;exitDy=0;entryX=1;entryY=0;entryDx=0;entryDy=0;strokeWidth=2;endArrow=none;startFill=0;" edge="1" parent="IQPRCwWOdHiarxcuKvKh-1" source="IQPRCwWOdHiarxcuKvKh-36" target="IQPRCwWOdHiarxcuKvKh-37">
          <mxGeometry relative="1" as="geometry" />
        </mxCell>
        <mxCell id="IQPRCwWOdHiarxcuKvKh-35" style="rounded=0;orthogonalLoop=1;jettySize=auto;html=1;exitX=1;exitY=0.5;exitDx=0;exitDy=0;entryX=0;entryY=0.5;entryDx=0;entryDy=0;strokeWidth=2;endArrow=none;startFill=0;" edge="1" parent="IQPRCwWOdHiarxcuKvKh-1" source="IQPRCwWOdHiarxcuKvKh-36" target="IQPRCwWOdHiarxcuKvKh-52">
          <mxGeometry relative="1" as="geometry" />
        </mxCell>
        <mxCell id="IQPRCwWOdHiarxcuKvKh-36" value="&lt;font style=&quot;font-size: 20px;&quot;&gt;Jugador&lt;/font&gt;" style="whiteSpace=wrap;html=1;align=center;strokeWidth=2;fillColor=#fff2cc;strokeColor=#d6b656;" vertex="1" parent="IQPRCwWOdHiarxcuKvKh-1">
          <mxGeometry x="1190" y="635" width="120" height="40" as="geometry" />
        </mxCell>
        <mxCell id="IQPRCwWOdHiarxcuKvKh-37" value="&lt;font style=&quot;font-size: 17px;&quot;&gt;TiempoJuego&lt;/font&gt;" style="ellipse;whiteSpace=wrap;html=1;align=center;strokeWidth=2;fillColor=#dae8fc;strokeColor=#6c8ebf;" vertex="1" parent="IQPRCwWOdHiarxcuKvKh-1">
          <mxGeometry x="1040" y="705" width="120" height="50" as="geometry" />
        </mxCell>
        <mxCell id="IQPRCwWOdHiarxcuKvKh-38" value="&lt;font style=&quot;font-size: 17px;&quot;&gt;NivelAvance&lt;/font&gt;" style="ellipse;whiteSpace=wrap;html=1;align=center;strokeWidth=2;fillColor=#dae8fc;strokeColor=#6c8ebf;" vertex="1" parent="IQPRCwWOdHiarxcuKvKh-1">
          <mxGeometry x="1040" y="630" width="120" height="50" as="geometry" />
        </mxCell>
        <mxCell id="IQPRCwWOdHiarxcuKvKh-39" value="&lt;font style=&quot;font-size: 17px;&quot;&gt;PuntosAlcanzados&lt;/font&gt;" style="ellipse;whiteSpace=wrap;html=1;align=center;strokeWidth=2;fillColor=#dae8fc;strokeColor=#6c8ebf;" vertex="1" parent="IQPRCwWOdHiarxcuKvKh-1">
          <mxGeometry x="1340" y="710" width="160" height="50" as="geometry" />
        </mxCell>
        <mxCell id="IQPRCwWOdHiarxcuKvKh-42" style="edgeStyle=orthogonalEdgeStyle;rounded=0;orthogonalLoop=1;jettySize=auto;html=1;exitX=0;exitY=0.5;exitDx=0;exitDy=0;entryX=1;entryY=0.5;entryDx=0;entryDy=0;strokeWidth=2;endArrow=none;endFill=1;startFill=0;" edge="1" parent="IQPRCwWOdHiarxcuKvKh-1" source="IQPRCwWOdHiarxcuKvKh-44" target="IQPRCwWOdHiarxcuKvKh-7">
          <mxGeometry relative="1" as="geometry" />
        </mxCell>
        <mxCell id="IQPRCwWOdHiarxcuKvKh-43" style="edgeStyle=orthogonalEdgeStyle;rounded=0;orthogonalLoop=1;jettySize=auto;html=1;exitX=1;exitY=0.5;exitDx=0;exitDy=0;entryX=0;entryY=0.5;entryDx=0;entryDy=0;strokeWidth=2;endArrow=block;endFill=1;startFill=0;" edge="1" parent="IQPRCwWOdHiarxcuKvKh-1" source="IQPRCwWOdHiarxcuKvKh-44" target="IQPRCwWOdHiarxcuKvKh-19">
          <mxGeometry relative="1" as="geometry" />
        </mxCell>
        <mxCell id="jYgVYlLxXu33lL3B89db-2" value="" style="rounded=0;orthogonalLoop=1;jettySize=auto;html=1;strokeWidth=2;endArrow=none;startFill=0;endFill=1;" edge="1" parent="IQPRCwWOdHiarxcuKvKh-1" source="IQPRCwWOdHiarxcuKvKh-44" target="jYgVYlLxXu33lL3B89db-1">
          <mxGeometry relative="1" as="geometry" />
        </mxCell>
        <mxCell id="IQPRCwWOdHiarxcuKvKh-44" value="&lt;font style=&quot;font-size: 20px;&quot;&gt;Encontrar&lt;/font&gt;" style="shape=rhombus;perimeter=rhombusPerimeter;whiteSpace=wrap;html=1;align=center;strokeWidth=2;fillColor=#d5e8d4;strokeColor=#82b366;" vertex="1" parent="IQPRCwWOdHiarxcuKvKh-1">
          <mxGeometry x="920" y="300" width="150" height="60" as="geometry" />
        </mxCell>
        <mxCell id="IQPRCwWOdHiarxcuKvKh-45" value="" style="rounded=0;orthogonalLoop=1;jettySize=auto;html=1;strokeWidth=2;exitX=0.5;exitY=0;exitDx=0;exitDy=0;entryX=0.75;entryY=1;entryDx=0;entryDy=0;" edge="1" parent="IQPRCwWOdHiarxcuKvKh-1" source="IQPRCwWOdHiarxcuKvKh-47" target="IQPRCwWOdHiarxcuKvKh-7">
          <mxGeometry relative="1" as="geometry" />
        </mxCell>
        <mxCell id="IQPRCwWOdHiarxcuKvKh-46" style="rounded=0;orthogonalLoop=1;jettySize=auto;html=1;exitX=0;exitY=0.5;exitDx=0;exitDy=0;entryX=0.5;entryY=1;entryDx=0;entryDy=0;strokeWidth=2;shape=link;" edge="1" parent="IQPRCwWOdHiarxcuKvKh-1" source="IQPRCwWOdHiarxcuKvKh-47" target="IQPRCwWOdHiarxcuKvKh-7">
          <mxGeometry relative="1" as="geometry" />
        </mxCell>
        <mxCell id="IQPRCwWOdHiarxcuKvKh-47" value="&lt;font style=&quot;font-size: 20px;&quot;&gt;Dominar&lt;/font&gt;" style="shape=rhombus;perimeter=rhombusPerimeter;whiteSpace=wrap;html=1;align=center;strokeWidth=2;fillColor=#d5e8d4;strokeColor=#82b366;" vertex="1" parent="IQPRCwWOdHiarxcuKvKh-1">
          <mxGeometry x="780" y="415" width="150" height="60" as="geometry" />
        </mxCell>
        <mxCell id="IQPRCwWOdHiarxcuKvKh-48" style="rounded=0;orthogonalLoop=1;jettySize=auto;html=1;exitX=0.5;exitY=0;exitDx=0;exitDy=0;entryX=0.5;entryY=1;entryDx=0;entryDy=0;strokeWidth=2;endArrow=block;startFill=0;startArrow=none;endFill=1;" edge="1" parent="IQPRCwWOdHiarxcuKvKh-1" source="IQPRCwWOdHiarxcuKvKh-50" target="IQPRCwWOdHiarxcuKvKh-7">
          <mxGeometry relative="1" as="geometry" />
        </mxCell>
        <mxCell id="IQPRCwWOdHiarxcuKvKh-49" style="rounded=0;orthogonalLoop=1;jettySize=auto;html=1;exitX=0.5;exitY=1;exitDx=0;exitDy=0;entryX=0.5;entryY=0;entryDx=0;entryDy=0;strokeWidth=2;endArrow=none;startFill=0;endFill=1;" edge="1" parent="IQPRCwWOdHiarxcuKvKh-1" source="IQPRCwWOdHiarxcuKvKh-50">
          <mxGeometry relative="1" as="geometry">
            <mxPoint x="670" y="625" as="targetPoint" />
          </mxGeometry>
        </mxCell>
        <mxCell id="IQPRCwWOdHiarxcuKvKh-50" value="&lt;font style=&quot;font-size: 20px;&quot;&gt;Tener&lt;/font&gt;" style="shape=rhombus;perimeter=rhombusPerimeter;whiteSpace=wrap;html=1;align=center;strokeWidth=2;fillColor=#d5e8d4;strokeColor=#82b366;" vertex="1" parent="IQPRCwWOdHiarxcuKvKh-1">
          <mxGeometry x="595" y="490" width="150" height="60" as="geometry" />
        </mxCell>
        <mxCell id="IQPRCwWOdHiarxcuKvKh-52" value="&lt;font style=&quot;font-size: 20px;&quot;&gt;IdJugador&lt;/font&gt;" style="ellipse;whiteSpace=wrap;html=1;align=center;fontStyle=4;strokeWidth=2;fillColor=#dae8fc;strokeColor=#6c8ebf;" vertex="1" parent="IQPRCwWOdHiarxcuKvKh-1">
          <mxGeometry x="1370" y="625" width="145" height="60" as="geometry" />
        </mxCell>
        <mxCell id="hNANthhiV2G6ag8AvIlq-5" style="rounded=0;orthogonalLoop=1;jettySize=auto;html=1;exitX=0.25;exitY=0;exitDx=0;exitDy=0;entryX=1;entryY=1;entryDx=0;entryDy=0;endArrow=none;startFill=0;strokeWidth=2;" edge="1" parent="IQPRCwWOdHiarxcuKvKh-1" source="jYgVYlLxXu33lL3B89db-1" target="hNANthhiV2G6ag8AvIlq-4">
          <mxGeometry relative="1" as="geometry">
            <mxPoint x="932.5735931288073" y="167.3223304703364" as="sourcePoint" />
          </mxGeometry>
        </mxCell>
        <mxCell id="hNANthhiV2G6ag8AvIlq-6" style="rounded=0;orthogonalLoop=1;jettySize=auto;html=1;exitX=0.5;exitY=0;exitDx=0;exitDy=0;entryX=0.527;entryY=0.868;entryDx=0;entryDy=0;endArrow=none;startFill=0;strokeWidth=2;entryPerimeter=0;" edge="1" parent="IQPRCwWOdHiarxcuKvKh-1" source="jYgVYlLxXu33lL3B89db-1" target="hNANthhiV2G6ag8AvIlq-3">
          <mxGeometry relative="1" as="geometry">
            <mxPoint x="915" y="185" as="sourcePoint" />
          </mxGeometry>
        </mxCell>
        <mxCell id="hNANthhiV2G6ag8AvIlq-7" style="rounded=0;orthogonalLoop=1;jettySize=auto;html=1;exitX=0.75;exitY=0;exitDx=0;exitDy=0;entryX=0;entryY=1;entryDx=0;entryDy=0;endArrow=none;startFill=0;strokeWidth=2;" edge="1" parent="IQPRCwWOdHiarxcuKvKh-1" source="jYgVYlLxXu33lL3B89db-1" target="hNANthhiV2G6ag8AvIlq-2">
          <mxGeometry relative="1" as="geometry">
            <mxPoint x="932.5735931288073" y="202.67766952966372" as="sourcePoint" />
          </mxGeometry>
        </mxCell>
        <mxCell id="hNANthhiV2G6ag8AvIlq-2" value="&lt;span style=&quot;font-size: 20px;&quot;&gt;Segundo&lt;/span&gt;" style="ellipse;whiteSpace=wrap;html=1;align=center;strokeWidth=2;fillColor=#dae8fc;strokeColor=#6c8ebf;" vertex="1" parent="IQPRCwWOdHiarxcuKvKh-1">
          <mxGeometry x="1060" y="70" width="120" height="50" as="geometry" />
        </mxCell>
        <mxCell id="hNANthhiV2G6ag8AvIlq-3" value="&lt;span style=&quot;font-size: 20px;&quot;&gt;Minuto&lt;/span&gt;" style="ellipse;whiteSpace=wrap;html=1;align=center;strokeWidth=2;fillColor=#dae8fc;strokeColor=#6c8ebf;" vertex="1" parent="IQPRCwWOdHiarxcuKvKh-1">
          <mxGeometry x="930" y="70" width="120" height="50" as="geometry" />
        </mxCell>
        <mxCell id="hNANthhiV2G6ag8AvIlq-4" value="&lt;span style=&quot;font-size: 20px;&quot;&gt;Hora&lt;/span&gt;" style="ellipse;whiteSpace=wrap;html=1;align=center;strokeWidth=2;fillColor=#dae8fc;strokeColor=#6c8ebf;" vertex="1" parent="IQPRCwWOdHiarxcuKvKh-1">
          <mxGeometry x="800" y="70" width="120" height="50" as="geometry" />
        </mxCell>
        <mxCell id="hNANthhiV2G6ag8AvIlq-12" style="edgeStyle=orthogonalEdgeStyle;rounded=0;orthogonalLoop=1;jettySize=auto;html=1;exitX=0.5;exitY=0;exitDx=0;exitDy=0;entryX=0.25;entryY=1;entryDx=0;entryDy=0;strokeWidth=2;" edge="1" parent="IQPRCwWOdHiarxcuKvKh-1" target="IQPRCwWOdHiarxcuKvKh-19">
          <mxGeometry relative="1" as="geometry">
            <mxPoint x="995" y="500" as="sourcePoint" />
          </mxGeometry>
        </mxCell>
        <mxCell id="hNANthhiV2G6ag8AvIlq-16" style="rounded=0;orthogonalLoop=1;jettySize=auto;html=1;exitX=0.5;exitY=1;exitDx=0;exitDy=0;entryX=0.5;entryY=0;entryDx=0;entryDy=0;strokeWidth=2;endArrow=none;startFill=0;" edge="1" parent="IQPRCwWOdHiarxcuKvKh-1" source="hNANthhiV2G6ag8AvIlq-14" target="IQPRCwWOdHiarxcuKvKh-36">
          <mxGeometry relative="1" as="geometry" />
        </mxCell>
        <mxCell id="hNANthhiV2G6ag8AvIlq-14" value="&lt;font style=&quot;font-size: 20px;&quot;&gt;Ubicar&lt;/font&gt;" style="shape=rhombus;perimeter=rhombusPerimeter;whiteSpace=wrap;html=1;align=center;strokeWidth=2;fillColor=#d5e8d4;strokeColor=#82b366;" vertex="1" parent="IQPRCwWOdHiarxcuKvKh-1">
          <mxGeometry x="1172.5" y="500" width="150" height="60" as="geometry" />
        </mxCell>
        <mxCell id="hNANthhiV2G6ag8AvIlq-17" value="&lt;font style=&quot;font-size: 20px;&quot;&gt;Riesgo&lt;/font&gt;" style="ellipse;shape=doubleEllipse;margin=3;whiteSpace=wrap;html=1;align=center;fillColor=#dae8fc;strokeColor=#6c8ebf;" vertex="1" parent="IQPRCwWOdHiarxcuKvKh-1">
          <mxGeometry x="1400" y="230" width="120" height="50" as="geometry" />
        </mxCell>
        <mxCell id="hNANthhiV2G6ag8AvIlq-18" value="&lt;font style=&quot;font-size: 20px;&quot;&gt;Tiempo&lt;/font&gt;" style="ellipse;shape=doubleEllipse;margin=3;whiteSpace=wrap;html=1;align=center;fillColor=#dae8fc;strokeColor=#6c8ebf;" vertex="1" parent="IQPRCwWOdHiarxcuKvKh-1">
          <mxGeometry x="1400" y="380" width="120" height="50" as="geometry" />
        </mxCell>
        <mxCell id="hNANthhiV2G6ag8AvIlq-19" value="&lt;font style=&quot;font-size: 17px;&quot;&gt;Porcentaje&lt;/font&gt;" style="ellipse;whiteSpace=wrap;html=1;align=center;strokeWidth=2;fillColor=#dae8fc;strokeColor=#6c8ebf;" vertex="1" parent="IQPRCwWOdHiarxcuKvKh-1">
          <mxGeometry x="745" y="550" width="120" height="50" as="geometry" />
        </mxCell>
        <mxCell id="jYgVYlLxXu33lL3B89db-4" style="edgeStyle=orthogonalEdgeStyle;rounded=0;orthogonalLoop=1;jettySize=auto;html=1;exitX=0;exitY=0.5;exitDx=0;exitDy=0;entryX=0;entryY=0.5;entryDx=0;entryDy=0;endArrow=none;startFill=0;strokeWidth=2;" edge="1" parent="IQPRCwWOdHiarxcuKvKh-1" source="jYgVYlLxXu33lL3B89db-1" target="IQPRCwWOdHiarxcuKvKh-50">
          <mxGeometry relative="1" as="geometry">
            <mxPoint x="360" y="530" as="targetPoint" />
            <Array as="points">
              <mxPoint x="361" y="190" />
              <mxPoint x="361" y="520" />
            </Array>
          </mxGeometry>
        </mxCell>
        <mxCell id="jYgVYlLxXu33lL3B89db-1" value="&lt;font style=&quot;font-size: 20px;&quot;&gt;Momento&lt;/font&gt;" style="whiteSpace=wrap;html=1;align=center;strokeWidth=2;fillColor=#fff2cc;strokeColor=#d6b656;" vertex="1" parent="IQPRCwWOdHiarxcuKvKh-1">
          <mxGeometry x="935" y="170" width="120" height="40" as="geometry" />
        </mxCell>
        <mxCell id="6Ug1XUo8lBixVzAfCHDx-0" value="&lt;span style=&quot;font-size: 20px;&quot;&gt;IdMomento&lt;/span&gt;" style="ellipse;whiteSpace=wrap;html=1;align=center;strokeWidth=2;fillColor=#dae8fc;strokeColor=#6c8ebf;" vertex="1" parent="IQPRCwWOdHiarxcuKvKh-1">
          <mxGeometry x="1080" y="165" width="120" height="50" as="geometry" />
        </mxCell>
        <mxCell id="6Ug1XUo8lBixVzAfCHDx-1" style="rounded=0;orthogonalLoop=1;jettySize=auto;html=1;exitX=1;exitY=0.5;exitDx=0;exitDy=0;entryX=0;entryY=0.5;entryDx=0;entryDy=0;endArrow=none;startFill=0;strokeWidth=2;" edge="1" parent="IQPRCwWOdHiarxcuKvKh-1" source="jYgVYlLxXu33lL3B89db-1" target="6Ug1XUo8lBixVzAfCHDx-0">
          <mxGeometry relative="1" as="geometry">
            <mxPoint x="1070" y="220" as="sourcePoint" />
          </mxGeometry>
        </mxCell>
        <mxCell id="5mABO2EIqKRDLWEI9WXU-1" value="" style="edgeStyle=none;curved=1;rounded=0;orthogonalLoop=1;jettySize=auto;html=1;fontSize=12;startSize=8;endSize=8;strokeWidth=2;endArrow=none;startFill=0;" edge="1" parent="IQPRCwWOdHiarxcuKvKh-1" target="IQPRCwWOdHiarxcuKvKh-36">
          <mxGeometry relative="1" as="geometry">
            <mxPoint x="1250" y="750" as="sourcePoint" />
          </mxGeometry>
        </mxCell>
        <mxCell id="iYZLY2zKtoLFK-5clh2L-0" value="&lt;font style=&quot;font-size: 20px;&quot;&gt;Objeto&lt;/font&gt;" style="shape=ext;margin=3;double=1;whiteSpace=wrap;html=1;align=center;fillColor=#fff2cc;strokeColor=#d6b656;" vertex="1" parent="IQPRCwWOdHiarxcuKvKh-1">
          <mxGeometry x="610" y="625" width="120" height="40" as="geometry" />
        </mxCell>
        <mxCell id="5mABO2EIqKRDLWEI9WXU-0" value="&lt;font style=&quot;font-size: 20px;&quot;&gt;Contener&lt;/font&gt;" style="shape=rhombus;double=1;perimeter=rhombusPerimeter;whiteSpace=wrap;html=1;align=center;fillColor=#d5e8d4;strokeColor=#82b366;" vertex="1" parent="IQPRCwWOdHiarxcuKvKh-1">
          <mxGeometry x="920" y="500" width="150" height="60" as="geometry" />
        </mxCell>
        <mxCell id="9Ef0HTuZayOCGcKspRoh-1" value="&lt;span style=&quot;border-bottom: 1px dotted&quot;&gt;&lt;font style=&quot;font-size: 19px;&quot;&gt;IdObjeto&lt;/font&gt;&lt;/span&gt;" style="ellipse;whiteSpace=wrap;html=1;align=center;strokeWidth=2;fillColor=#dae8fc;strokeColor=#6c8ebf;" vertex="1" parent="IQPRCwWOdHiarxcuKvKh-1">
          <mxGeometry x="475" y="550" width="120" height="50" as="geometry" />
        </mxCell>
        <mxCell id="OQuja1a-MP3bFB1w6bRO-0" value="&lt;font style=&quot;font-size: 19px;&quot;&gt;NombreJugador&lt;/font&gt;" style="ellipse;whiteSpace=wrap;html=1;align=center;fillColor=#dae8fc;strokeColor=#6c8ebf;strokeWidth=2;" vertex="1" parent="IQPRCwWOdHiarxcuKvKh-1">
          <mxGeometry x="1172.5" y="750" width="147.5" height="60" as="geometry" />
        </mxCell>
      </root>
    </mxGraphModel>
  </diagram>
</mxfile>
